<svg width="270" height="67" viewBox="0 0 270 67" fill="none" xmlns="http://www.w3.org/2000/svg">
<g clip-path="url(#clip0_4_21)">
<path d="M22.9174 22.4741L39.4724 32.9432V65.4719L26.9476 55.5014L22.9174 22.4741Z" fill="#FF181F" stroke="#FF181F" stroke-width="0.613992"/>
<path d="M56.5653 22.4741L40.084 32.9422V65.468L52.553 55.4984L56.5653 22.4741Z" fill="#FF181F" stroke="#FF181F" stroke-width="0.612597"/>
<path d="M10.7832 7.12903L0.149557 16.875L14.2122 46.75L18.8832 50.0782L10.7832 7.12903Z" fill="#FF181F" stroke="#FF151C" stroke-width="0.245669"/>
<path d="M18.8832 0.390625L39.7801 13.7031L60.1333 0.390625L67.8091 6.15628L39.7801 25.3281L11.7974 6.51565L18.8832 0.390625Z" fill="#FF181F" stroke="#FF181F" stroke-width="0.623622"/>
<path d="M10.7135 7.19142L10.5635 7.15959L10.8731 6.86731L10.9894 7.73828" fill="#FF181F"/>
<path d="M68.6872 6.58215L79.3208 16.3281L65.2582 46.2031L60.1334 50.0781L68.6872 6.58215Z" fill="#FF181F" stroke="#FF151C" stroke-width="0.245669"/>
<path d="M68.752 6.64075L68.902 6.60893L68.5925 6.31665L68.4761 7.18762" fill="#FF181F"/>
<path opacity="0.261438" d="M39.7897 13.3292V65.9836L65.2677 46.0225L68.602 5.8988L60.1334 0L39.7897 13.3292Z" fill="url(#paint0_linear_4_21)"/>
</g>
<path d="M90.7082 6.68071H94.5476L99.6892 19.2304H99.8922L105.034 6.68071H108.873V24H105.863V12.1014H105.702L100.915 23.9493H98.666L93.8795 12.0761H93.7188V24H90.7082V6.68071ZM115.106 19.8562L120.307 11.0105H123.453V24H120.493V15.1459L115.309 24H112.154V11.0105H115.106V19.8562ZM135.518 16.2368V18.7484H128.601V16.2368H135.518ZM129.548 11.0105V24H126.596V11.0105H129.548ZM137.522 11.0105V24H134.579V11.0105H137.522ZM143.571 19.8562L148.772 11.0105H151.918V24H148.958V15.1459L143.774 24H140.62V11.0105H143.571V19.8562ZM160.727 24.2537C159.431 24.2537 158.317 23.969 157.387 23.3996C156.462 22.8302 155.749 22.0437 155.248 21.0402C154.751 20.031 154.503 18.8696 154.503 17.556C154.503 16.2368 154.757 15.0726 155.264 14.0634C155.772 13.0486 156.488 12.2593 157.412 11.6955C158.343 11.1261 159.442 10.8414 160.711 10.8414C161.765 10.8414 162.698 11.0359 163.51 11.4249C164.327 11.8083 164.978 12.3523 165.463 13.0571C165.948 13.7561 166.224 14.5736 166.292 15.5095H163.366C163.248 14.8837 162.966 14.3622 162.52 13.945C162.081 13.5222 161.491 13.3108 160.753 13.3108C160.127 13.3108 159.577 13.4799 159.104 13.8182C158.63 14.1508 158.261 14.63 157.996 15.2558C157.737 15.8816 157.607 16.6314 157.607 17.5053C157.607 18.3904 157.737 19.1515 157.996 19.7886C158.255 20.42 158.619 20.9077 159.087 21.2516C159.56 21.5898 160.116 21.759 160.753 21.759C161.204 21.759 161.607 21.6744 161.962 21.5053C162.323 21.3305 162.625 21.0796 162.867 20.7526C163.109 20.4256 163.276 20.0282 163.366 19.5602H166.292C166.219 20.4792 165.948 21.2939 165.48 22.0042C165.012 22.7089 164.375 23.2614 163.569 23.6617C162.763 24.0564 161.816 24.2537 160.727 24.2537ZM167.863 13.5222V11.0105H179.229V13.5222H175.026V24H172.066V13.5222H167.863ZM186.882 24.2537C185.58 24.2537 184.455 23.9831 183.508 23.4419C182.566 22.895 181.842 22.1226 181.334 21.1247C180.827 20.1212 180.573 18.9401 180.573 17.5814C180.573 16.2452 180.827 15.0726 181.334 14.0634C181.847 13.0486 182.563 12.2593 183.482 11.6955C184.401 11.1261 185.481 10.8414 186.721 10.8414C187.522 10.8414 188.277 10.9711 188.988 11.2304C189.704 11.4841 190.335 11.8788 190.882 12.4143C191.434 12.9499 191.868 13.6321 192.184 14.4609C192.5 15.284 192.658 16.265 192.658 17.4038V18.3425H182.011V16.279H189.723C189.718 15.6927 189.591 15.1712 189.343 14.7146C189.095 14.2523 188.748 13.8886 188.303 13.6237C187.863 13.3587 187.35 13.2262 186.763 13.2262C186.138 13.2262 185.588 13.3784 185.114 13.6828C184.641 13.9816 184.272 14.3763 184.007 14.8668C183.747 15.3516 183.615 15.8844 183.609 16.4651V18.2664C183.609 19.0218 183.747 19.6702 184.024 20.2114C184.3 20.747 184.686 21.1586 185.182 21.4461C185.678 21.728 186.259 21.8689 186.924 21.8689C187.37 21.8689 187.773 21.8069 188.133 21.6829C188.494 21.5532 188.807 21.3643 189.072 21.1163C189.337 20.8682 189.537 20.5609 189.673 20.1945L192.531 20.5158C192.351 21.2713 192.007 21.9309 191.499 22.4947C190.997 23.0529 190.355 23.487 189.571 23.797C188.787 24.1015 187.891 24.2537 186.882 24.2537ZM195.248 28.871V11.0105H198.258V13.1585H198.436C198.594 12.8428 198.816 12.5074 199.104 12.1522C199.391 11.7914 199.78 11.4841 200.271 11.2304C200.761 10.9711 201.387 10.8414 202.148 10.8414C203.152 10.8414 204.057 11.0979 204.863 11.611C205.675 12.1184 206.317 12.871 206.791 13.8689C207.27 14.8611 207.51 16.0789 207.51 17.5222C207.51 18.9485 207.276 20.1607 206.808 21.1586C206.34 22.1564 205.703 22.9175 204.897 23.4419C204.091 23.9662 203.177 24.2283 202.157 24.2283C201.413 24.2283 200.795 24.1043 200.305 23.8562C199.814 23.6082 199.42 23.3094 199.121 22.9598C198.828 22.6046 198.599 22.2692 198.436 21.9535H198.309V28.871H195.248ZM198.25 17.5053C198.25 18.3453 198.368 19.081 198.605 19.7125C198.847 20.3439 199.194 20.8372 199.645 21.1924C200.102 21.5419 200.654 21.7167 201.303 21.7167C201.979 21.7167 202.546 21.5363 203.002 21.1755C203.459 20.809 203.803 20.3101 204.034 19.6786C204.271 19.0416 204.389 18.3171 204.389 17.5053C204.389 16.6991 204.274 15.9831 204.043 15.3573C203.811 14.7315 203.468 14.241 203.011 13.8858C202.554 13.5306 201.985 13.353 201.303 13.353C200.649 13.353 200.093 13.525 199.637 13.8689C199.18 14.2128 198.833 14.6948 198.596 15.315C198.365 15.9351 198.25 16.6652 198.25 17.5053ZM215.797 24.2537C214.501 24.2537 213.387 23.969 212.457 23.3996C211.532 22.8302 210.819 22.0437 210.317 21.0402C209.821 20.031 209.573 18.8696 209.573 17.556C209.573 16.2368 209.827 15.0726 210.334 14.0634C210.842 13.0486 211.558 12.2593 212.482 11.6955C213.413 11.1261 214.512 10.8414 215.78 10.8414C216.835 10.8414 217.768 11.0359 218.58 11.4249C219.397 11.8083 220.048 12.3523 220.533 13.0571C221.018 13.7561 221.294 14.5736 221.362 15.5095H218.436C218.317 14.8837 218.036 14.3622 217.59 13.945C217.15 13.5222 216.561 13.3108 215.823 13.3108C215.197 13.3108 214.647 13.4799 214.174 13.8182C213.7 14.1508 213.331 14.63 213.066 15.2558C212.807 15.8816 212.677 16.6314 212.677 17.5053C212.677 18.3904 212.807 19.1515 213.066 19.7886C213.325 20.42 213.689 20.9077 214.157 21.2516C214.63 21.5898 215.186 21.759 215.823 21.759C216.274 21.759 216.677 21.6744 217.032 21.5053C217.393 21.3305 217.695 21.0796 217.937 20.7526C218.179 20.4256 218.346 20.0282 218.436 19.5602H221.362C221.289 20.4792 221.018 21.2939 220.55 22.0042C220.082 22.7089 219.445 23.2614 218.639 23.6617C217.833 24.0564 216.885 24.2537 215.797 24.2537ZM222.933 13.5222V11.0105H234.298V13.5222H230.096V24H227.136V13.5222H222.933ZM236.736 24V11.0105H242.191C243.73 11.0105 244.945 11.3178 245.836 11.9323C246.732 12.5468 247.18 13.4038 247.18 14.5031C247.18 15.2304 246.926 15.8252 246.419 16.2875C245.917 16.7442 245.232 17.0514 244.364 17.2093C245.046 17.2657 245.644 17.4376 246.157 17.7251C246.676 18.0127 247.081 18.3904 247.375 18.8583C247.668 19.3263 247.814 19.8647 247.814 20.4736C247.814 21.1896 247.626 21.8125 247.248 22.3425C246.876 22.8668 246.332 23.2755 245.616 23.5687C244.905 23.8562 244.043 24 243.028 24H236.736ZM239.603 21.5898H243.028C243.592 21.5898 244.034 21.4574 244.356 21.1924C244.677 20.9218 244.838 20.5553 244.838 20.093C244.838 19.5574 244.677 19.1374 244.356 18.833C244.034 18.5229 243.592 18.3678 243.028 18.3678H239.603V21.5898ZM239.603 16.389H242.25C242.667 16.389 243.025 16.3298 243.324 16.2114C243.623 16.0874 243.851 15.9154 244.009 15.6955C244.167 15.47 244.246 15.2022 244.246 14.8922C244.246 14.4468 244.062 14.0972 243.696 13.8435C243.335 13.5898 242.833 13.463 242.191 13.463H239.603V16.389ZM256.007 24.2537C254.738 24.2537 253.639 23.9746 252.709 23.4165C251.778 22.8583 251.057 22.0775 250.544 21.074C250.036 20.0705 249.783 18.8978 249.783 17.556C249.783 16.2142 250.036 15.0387 250.544 14.0296C251.057 13.0204 251.778 12.2368 252.709 11.6786C253.639 11.1205 254.738 10.8414 256.007 10.8414C257.275 10.8414 258.375 11.1205 259.305 11.6786C260.235 12.2368 260.954 13.0204 261.461 14.0296C261.974 15.0387 262.231 16.2142 262.231 17.556C262.231 18.8978 261.974 20.0705 261.461 21.074C260.954 22.0775 260.235 22.8583 259.305 23.4165C258.375 23.9746 257.275 24.2537 256.007 24.2537ZM256.024 21.8013C256.712 21.8013 257.287 21.6124 257.749 21.2347C258.211 20.8513 258.555 20.3383 258.781 19.6955C259.012 19.0528 259.127 18.3368 259.127 17.5476C259.127 16.7526 259.012 16.0338 258.781 15.3911C258.555 14.7428 258.211 14.2269 257.749 13.8435C257.287 13.4602 256.712 13.2685 256.024 13.2685C255.319 13.2685 254.733 13.4602 254.265 13.8435C253.802 14.2269 253.456 14.7428 253.225 15.3911C252.999 16.0338 252.886 16.7526 252.886 17.5476C252.886 18.3368 252.999 19.0528 253.225 19.6955C253.456 20.3383 253.802 20.8513 254.265 21.2347C254.733 21.6124 255.319 21.8013 256.024 21.8013ZM99.0526 35.9341C99.0526 37.0258 98.8481 37.9608 98.4392 38.7391C98.0335 39.5142 97.4794 40.1079 96.7769 40.5201C96.0777 40.9324 95.2845 41.1385 94.3974 41.1385C93.5102 41.1385 92.7153 40.9324 92.0128 40.5201C91.3136 40.1046 90.7595 39.5093 90.3506 38.7342C89.9449 37.9558 89.7421 37.0225 89.7421 35.9341C89.7421 34.8424 89.9449 33.9091 90.3506 33.134C90.7595 32.3557 91.3136 31.7604 92.0128 31.3481C92.7153 30.9358 93.5102 30.7297 94.3974 30.7297C95.2845 30.7297 96.0777 30.9358 96.7769 31.3481C97.4794 31.7604 98.0335 32.3557 98.4392 33.134C98.8481 33.9091 99.0526 34.8424 99.0526 35.9341ZM97.2073 35.9341C97.2073 35.1657 97.087 34.5176 96.8462 33.9899C96.6087 33.4589 96.2789 33.0582 95.8568 32.7877C95.4346 32.514 94.9481 32.3771 94.3974 32.3771C93.8466 32.3771 93.3601 32.514 92.9379 32.7877C92.5158 33.0582 92.1843 33.4589 91.9436 33.9899C91.7061 34.5176 91.5874 35.1657 91.5874 35.9341C91.5874 36.7026 91.7061 37.3523 91.9436 37.8833C92.1843 38.411 92.5158 38.8117 92.9379 39.0854C93.3601 39.3559 93.8466 39.4911 94.3974 39.4911C94.9481 39.4911 95.4346 39.3559 95.8568 39.0854C96.2789 38.8117 96.6087 38.411 96.8462 37.8833C97.087 37.3523 97.2073 36.7026 97.2073 35.9341ZM100.788 41V30.8682H107.303V32.4068H102.623V34.7814H104.577C105.352 34.7814 106.017 34.9084 106.571 35.1624C107.128 35.413 107.556 35.7676 107.852 36.226C108.149 36.6844 108.298 37.2237 108.298 37.8437C108.298 38.4671 108.149 39.0162 107.852 39.4911C107.556 39.9627 107.128 40.3321 106.571 40.5993C106.017 40.8664 105.352 41 104.577 41H100.788ZM102.623 39.4961H104.577C104.986 39.4961 105.333 39.4186 105.616 39.2635C105.9 39.1085 106.114 38.9041 106.259 38.6501C106.408 38.3961 106.482 38.1208 106.482 37.8239C106.482 37.3952 106.317 37.0307 105.987 36.7306C105.661 36.4272 105.191 36.2755 104.577 36.2755H102.623V39.4961ZM109.903 41V30.8682H113.702C114.481 30.8682 115.134 31.0133 115.661 31.3036C116.192 31.5938 116.593 31.9929 116.864 32.5008C117.137 33.0054 117.274 33.5793 117.274 34.2224C117.274 34.8721 117.137 35.4493 116.864 35.9539C116.59 36.4585 116.186 36.8559 115.652 37.1462C115.117 37.4331 114.459 37.5766 113.678 37.5766H111.16V36.0677H113.43C113.885 36.0677 114.258 35.9885 114.548 35.8302C114.839 35.6719 115.053 35.4542 115.191 35.1772C115.333 34.9002 115.404 34.5819 115.404 34.2224C115.404 33.8629 115.333 33.5463 115.191 33.2725C115.053 32.9988 114.837 32.7861 114.543 32.6344C114.253 32.4793 113.879 32.4018 113.42 32.4018H111.738V41H109.903ZM119.04 41H117.081L120.648 30.8682H122.914L126.486 41H124.527L121.821 32.946H121.742L119.04 41ZM119.105 37.0274H124.448V38.5017H119.105V37.0274ZM131.358 41.1385C130.645 41.1385 130.012 41.0165 129.458 40.7724C128.907 40.5284 128.472 40.1887 128.152 39.7533C127.832 39.318 127.662 38.815 127.642 38.2444H129.502C129.519 38.5182 129.61 38.7573 129.774 38.9618C129.939 39.163 130.159 39.3196 130.432 39.4318C130.706 39.5439 131.013 39.6 131.353 39.6C131.715 39.6 132.037 39.5373 132.317 39.412C132.598 39.2833 132.817 39.1052 132.975 38.8777C133.134 38.6501 133.211 38.3879 133.208 38.0911C133.211 37.7843 133.132 37.5139 132.97 37.2797C132.809 37.0456 132.575 36.8625 132.268 36.7306C131.964 36.5987 131.598 36.5327 131.17 36.5327H130.274V35.1178H131.17C131.522 35.1178 131.831 35.0568 132.095 34.9348C132.362 34.8128 132.571 34.6413 132.723 34.4203C132.875 34.196 132.949 33.9371 132.946 33.6436C132.949 33.3566 132.885 33.1076 132.753 32.8966C132.624 32.6822 132.441 32.5156 132.204 32.3969C131.969 32.2782 131.694 32.2188 131.377 32.2188C131.067 32.2188 130.78 32.2749 130.517 32.387C130.253 32.4991 130.04 32.6591 129.878 32.8669C129.717 33.0714 129.631 33.3154 129.621 33.599H127.855C127.868 33.0318 128.031 32.5338 128.345 32.105C128.661 31.673 129.084 31.3365 129.611 31.0958C130.139 30.8517 130.731 30.7297 131.387 30.7297C132.063 30.7297 132.65 30.8567 133.148 31.1106C133.65 31.3613 134.037 31.6993 134.311 32.1248C134.585 32.5503 134.722 33.0202 134.722 33.5347C134.725 34.1053 134.557 34.5835 134.217 34.9694C133.881 35.3553 133.439 35.6076 132.891 35.7263V35.8055C133.604 35.9044 134.149 36.1683 134.529 36.597C134.911 37.0225 135.101 37.5518 135.098 38.1851C135.098 38.7523 134.936 39.2602 134.613 39.7088C134.293 40.154 133.851 40.5036 133.287 40.7576C132.726 41.0115 132.083 41.1385 131.358 41.1385ZM145.948 35.9341C145.948 37.0258 145.744 37.9608 145.335 38.7391C144.929 39.5142 144.375 40.1079 143.672 40.5201C142.973 40.9324 142.18 41.1385 141.293 41.1385C140.406 41.1385 139.611 40.9324 138.908 40.5201C138.209 40.1046 137.655 39.5093 137.246 38.7342C136.84 37.9558 136.637 37.0225 136.637 35.9341C136.637 34.8424 136.84 33.9091 137.246 33.134C137.655 32.3557 138.209 31.7604 138.908 31.3481C139.611 30.9358 140.406 30.7297 141.293 30.7297C142.18 30.7297 142.973 30.9358 143.672 31.3481C144.375 31.7604 144.929 32.3557 145.335 33.134C145.744 33.9091 145.948 34.8424 145.948 35.9341ZM144.103 35.9341C144.103 35.1657 143.982 34.5176 143.742 33.9899C143.504 33.4589 143.174 33.0582 142.752 32.7877C142.33 32.514 141.843 32.3771 141.293 32.3771C140.742 32.3771 140.255 32.514 139.833 32.7877C139.411 33.0582 139.08 33.4589 138.839 33.9899C138.601 34.5176 138.483 35.1657 138.483 35.9341C138.483 36.7026 138.601 37.3523 138.839 37.8833C139.08 38.411 139.411 38.8117 139.833 39.0854C140.255 39.3559 140.742 39.4911 141.293 39.4911C141.843 39.4911 142.33 39.3559 142.752 39.0854C143.174 38.8117 143.504 38.411 143.742 37.8833C143.982 37.3523 144.103 36.7026 144.103 35.9341ZM147.683 41V30.8682H151.562C152.294 30.8682 152.902 30.9837 153.387 31.2145C153.875 31.4421 154.24 31.7538 154.481 32.1495C154.725 32.5453 154.847 32.9938 154.847 33.4952C154.847 33.9074 154.768 34.2603 154.609 34.5539C154.451 34.8441 154.238 35.0799 153.971 35.2613C153.704 35.4427 153.405 35.573 153.076 35.6521V35.7511C153.435 35.7709 153.78 35.8813 154.11 36.0825C154.443 36.2804 154.715 36.5607 154.926 36.9235C155.137 37.2863 155.242 37.725 155.242 38.2395C155.242 38.7639 155.115 39.2355 154.862 39.6544C154.608 40.0699 154.225 40.3981 153.714 40.6389C153.203 40.8796 152.559 41 151.784 41H147.683ZM149.519 39.4664H151.493C152.159 39.4664 152.639 39.3394 152.932 39.0854C153.229 38.8282 153.377 38.4984 153.377 38.096C153.377 37.7959 153.303 37.5254 153.155 37.2847C153.006 37.0406 152.795 36.8493 152.522 36.7108C152.248 36.569 151.921 36.4981 151.542 36.4981H149.519V39.4664ZM149.519 35.1772H151.334C151.651 35.1772 151.936 35.1195 152.19 35.004C152.444 34.8853 152.644 34.7188 152.789 34.5044C152.937 34.2867 153.011 34.0295 153.011 33.7326C153.011 33.3401 152.873 33.0169 152.596 32.763C152.322 32.509 151.915 32.382 151.374 32.382H149.519V35.1772ZM158.14 41H156.181L159.748 30.8682H162.014L165.586 41H163.627L160.921 32.946H160.841L158.14 41ZM158.205 37.0274H163.548V38.5017H158.205V37.0274ZM166.92 41V30.8682H168.756V35.1574H173.45V30.8682H175.291V41H173.45V36.696H168.756V41H166.92ZM177.287 30.8682H179.108V37.7745H179.202L183.966 30.8682H185.613V41H183.778V34.0987H183.694L178.915 41H177.287V30.8682ZM195.093 41H193.253V32.4018H191.571C191.116 32.4018 190.741 32.4694 190.448 32.6047C190.157 32.7366 189.941 32.9312 189.8 33.1884C189.661 33.4424 189.592 33.7491 189.592 34.1086C189.592 34.4681 189.661 34.7715 189.8 35.0189C189.938 35.2629 190.153 35.4493 190.443 35.5779C190.736 35.7032 191.109 35.7659 191.561 35.7659H194.024V37.2896H191.313C190.535 37.2896 189.879 37.161 189.344 36.9038C188.81 36.6432 188.405 36.2755 188.127 35.8005C187.854 35.3223 187.717 34.7583 187.717 34.1086C187.717 33.4622 187.852 32.8966 188.123 32.4117C188.396 31.9236 188.799 31.5443 189.33 31.2739C189.861 31.0034 190.514 30.8682 191.289 30.8682H195.093V41ZM189.854 36.409H191.858L189.394 41H187.346L189.854 36.409ZM200.537 30.8682H202.358V37.7745H202.452L207.216 30.8682H208.863V41H207.028V34.0987H206.944L202.165 41H200.537V30.8682ZM214.319 41V30.8682H216.154V35.1574H220.849V30.8682H222.69V41H220.849V36.696H216.154V41H214.319ZM225.987 41H224.028L227.595 30.8682H229.86L233.432 41H231.473L228.767 32.946H228.688L225.987 41ZM226.051 37.0274H231.394V38.5017H226.051V37.0274ZM234.638 41.1385V39.595H235.217C235.478 39.595 235.692 39.5571 235.86 39.4812C236.028 39.4054 236.164 39.2965 236.266 39.1547C236.371 39.0129 236.459 38.848 236.528 38.66L236.662 38.3186L233.04 30.8682H234.96L237.483 36.2903L239.664 30.8682H241.554L238.062 39.13C237.9 39.4862 237.714 39.8176 237.503 40.1244C237.292 40.4278 237.016 40.6735 236.676 40.8615C236.34 41.0462 235.901 41.1385 235.36 41.1385H234.638ZM248.932 41L245.597 36.5723H244.697V41H242.862V30.8682H244.697V35.0337H245.157L248.759 30.8682H251.019L247.017 35.4889L251.193 41H248.932ZM252.439 30.8682H254.26V37.7745H254.354L259.118 30.8682H260.765V41H258.93V34.0987H258.846L254.067 41H252.439V30.8682ZM90.3901 48.1754H92.3087V51.7061C92.3087 52.1642 92.388 52.5271 92.5465 52.7949C92.7086 53.0627 92.9482 53.2547 93.2653 53.371C93.5825 53.4873 93.9771 53.5454 94.4493 53.5454C94.6607 53.5454 94.888 53.5384 95.1311 53.5243C95.3777 53.5067 95.6262 53.4838 95.8763 53.4556C96.1265 53.4239 96.3661 53.3869 96.5952 53.3446C96.8242 53.2988 97.0286 53.2495 97.2083 53.1966V54.7928C97.0286 54.8492 96.8277 54.9003 96.6057 54.9461C96.3837 54.9919 96.1494 55.0306 95.9028 55.0624C95.6561 55.0941 95.4095 55.1187 95.1628 55.1364C94.9162 55.154 94.6783 55.1628 94.4493 55.1628C93.6212 55.1628 92.9024 55.0447 92.2928 54.8087C91.6868 54.5691 91.2181 54.1955 90.8869 53.6881C90.5557 53.1807 90.3901 52.5201 90.3901 51.7061V48.1754ZM96.8859 48.1754H98.815V59H96.8859V48.1754ZM104.711 59.1586C103.897 59.1586 103.194 58.9894 102.602 58.6512C102.014 58.3094 101.561 57.8266 101.244 57.203C100.927 56.5758 100.768 55.8376 100.768 54.9884C100.768 54.1533 100.927 53.4204 101.244 52.7896C101.564 52.1554 102.012 51.6621 102.586 51.3097C103.161 50.9538 103.835 50.7759 104.611 50.7759C105.111 50.7759 105.583 50.8569 106.027 51.019C106.475 51.1776 106.869 51.4242 107.211 51.759C107.556 52.0937 107.828 52.5201 108.025 53.038C108.222 53.5525 108.321 54.1656 108.321 54.8774V55.464H101.667V54.1744H106.487C106.483 53.8079 106.404 53.482 106.249 53.1966C106.094 52.9077 105.877 52.6804 105.599 52.5148C105.324 52.3492 105.003 52.2664 104.637 52.2664C104.246 52.2664 103.902 52.3615 103.606 52.5518C103.31 52.7385 103.079 52.9852 102.914 53.2917C102.752 53.5948 102.669 53.9278 102.665 54.2907V55.4165C102.665 55.8886 102.752 56.2939 102.924 56.6321C103.097 56.9669 103.338 57.2241 103.649 57.4038C103.959 57.58 104.322 57.6681 104.737 57.6681C105.016 57.6681 105.268 57.6293 105.493 57.5518C105.719 57.4707 105.914 57.3527 106.08 57.1977C106.245 57.0426 106.371 56.8506 106.455 56.6216L108.242 56.8224C108.129 57.2946 107.914 57.7068 107.597 58.0592C107.283 58.408 106.881 58.6794 106.392 58.8731C105.902 59.0634 105.342 59.1586 104.711 59.1586ZM116.721 50.8816V59H114.881V50.8816H116.721ZM115.859 54.5497V56.1142C115.651 56.2058 115.415 56.2886 115.151 56.3626C114.89 56.433 114.614 56.4894 114.321 56.5317C114.032 56.574 113.743 56.5951 113.454 56.5951C112.369 56.5951 111.511 56.352 110.88 55.8657C110.253 55.376 109.94 54.6131 109.94 53.5772V50.871H111.768V53.5772C111.768 53.926 111.83 54.2061 111.953 54.4175C112.077 54.629 112.263 54.784 112.514 54.8827C112.764 54.9778 113.077 55.0254 113.454 55.0254C113.877 55.0254 114.279 54.9831 114.659 54.8985C115.04 54.8139 115.44 54.6977 115.859 54.5497ZM122.24 59.1586C121.426 59.1586 120.723 58.9894 120.131 58.6512C119.543 58.3094 119.09 57.8266 118.773 57.203C118.456 56.5758 118.297 55.8376 118.297 54.9884C118.297 54.1533 118.456 53.4204 118.773 52.7896C119.093 52.1554 119.541 51.6621 120.115 51.3097C120.69 50.9538 121.364 50.7759 122.14 50.7759C122.64 50.7759 123.112 50.8569 123.556 51.019C124.004 51.1776 124.398 51.4242 124.74 51.759C125.085 52.0937 125.357 52.5201 125.554 53.038C125.751 53.5525 125.85 54.1656 125.85 54.8774V55.464H119.196V54.1744H124.016C124.012 53.8079 123.933 53.482 123.778 53.1966C123.623 52.9077 123.406 52.6804 123.128 52.5148C122.853 52.3492 122.533 52.2664 122.166 52.2664C121.775 52.2664 121.431 52.3615 121.135 52.5518C120.839 52.7385 120.609 52.9852 120.443 53.2917C120.281 53.5948 120.198 53.9278 120.195 54.2907V55.4165C120.195 55.8886 120.281 56.2939 120.454 56.6321C120.626 56.9669 120.868 57.2241 121.178 57.4038C121.488 57.58 121.851 57.6681 122.266 57.6681C122.545 57.6681 122.797 57.6293 123.022 57.5518C123.248 57.4707 123.443 57.3527 123.609 57.1977C123.775 57.0426 123.9 56.8506 123.984 56.6216L125.771 56.8224C125.658 57.2946 125.443 57.7068 125.126 58.0592C124.812 58.408 124.411 58.6794 123.921 58.8731C123.431 59.0634 122.871 59.1586 122.24 59.1586ZM133.045 54.148V55.7178H128.721V54.148H133.045ZM129.313 50.8816V59H127.469V50.8816H129.313ZM134.297 50.8816V59H132.458V50.8816H134.297ZM139.774 59.1586C138.964 59.1586 138.268 58.9806 137.687 58.6247C137.109 58.2688 136.663 57.7773 136.349 57.1501C136.039 56.5194 135.884 55.7935 135.884 54.9725C135.884 54.148 136.043 53.4204 136.36 52.7896C136.677 52.1554 137.125 51.6621 137.703 51.3097C138.284 50.9538 138.971 50.7759 139.764 50.7759C140.423 50.7759 141.006 50.8974 141.513 51.1406C142.024 51.3802 142.431 51.7202 142.734 52.1607C143.037 52.5976 143.21 53.1085 143.252 53.6934H141.424C141.35 53.3023 141.173 52.9764 140.895 52.7156C140.62 52.4514 140.252 52.3192 139.79 52.3192C139.399 52.3192 139.056 52.4249 138.76 52.6363C138.464 52.8442 138.233 53.1437 138.067 53.5349C137.905 53.926 137.824 54.3946 137.824 54.9408C137.824 55.494 137.905 55.9697 138.067 56.3679C138.229 56.7625 138.457 57.0673 138.749 57.2822C139.045 57.4937 139.392 57.5994 139.79 57.5994C140.072 57.5994 140.324 57.5465 140.546 57.4408C140.772 57.3316 140.96 57.1748 141.112 56.9704C141.263 56.766 141.367 56.5176 141.424 56.2252H143.252C143.206 56.7995 143.037 57.3087 142.745 57.7526C142.452 58.1931 142.054 58.5384 141.55 58.7886C141.046 59.0352 140.455 59.1586 139.774 59.1586ZM144.823 59V50.8816H146.737V54.1585H147.434L149.876 50.8816H152.181L149.173 54.8668L152.212 59H149.897L147.672 55.9397H146.737V59H144.823ZM156.504 59.1586C155.711 59.1586 155.024 58.9841 154.443 58.6353C153.861 58.2865 153.41 57.7984 153.09 57.1712C152.773 56.544 152.614 55.8111 152.614 54.9725C152.614 54.1339 152.773 53.3992 153.09 52.7685C153.41 52.1378 153.861 51.648 154.443 51.2991C155.024 50.9503 155.711 50.7759 156.504 50.7759C157.297 50.7759 157.984 50.9503 158.565 51.2991C159.147 51.648 159.596 52.1378 159.913 52.7685C160.234 53.3992 160.394 54.1339 160.394 54.9725C160.394 55.8111 160.234 56.544 159.913 57.1712C159.596 57.7984 159.147 58.2865 158.565 58.6353C157.984 58.9841 157.297 59.1586 156.504 59.1586ZM156.515 57.6258C156.945 57.6258 157.304 57.5077 157.593 57.2717C157.882 57.0321 158.097 56.7114 158.238 56.3097C158.382 55.908 158.454 55.4605 158.454 54.9672C158.454 54.4704 158.382 54.0211 158.238 53.6194C158.097 53.2142 157.882 52.8918 157.593 52.6522C157.304 52.4126 156.945 52.2928 156.515 52.2928C156.074 52.2928 155.708 52.4126 155.415 52.6522C155.126 52.8918 154.91 53.2142 154.765 53.6194C154.624 54.0211 154.554 54.4704 154.554 54.9672C154.554 55.4605 154.624 55.908 154.765 56.3097C154.91 56.7114 155.126 57.0321 155.415 57.2717C155.708 57.5077 156.074 57.6258 156.515 57.6258ZM163.863 56.4101L167.113 50.8816H169.079V59H167.23V53.4662L163.99 59H162.018V50.8816H163.863V56.4101ZM166.59 48.0909H168.022C168.022 48.7075 167.799 49.2079 167.351 49.5919C166.907 49.9725 166.305 50.1628 165.544 50.1628C164.789 50.1628 164.189 49.9725 163.741 49.5919C163.297 49.2079 163.077 48.7075 163.081 48.0909H164.502C164.502 48.3446 164.58 48.5719 164.735 48.7727C164.893 48.97 165.163 49.0687 165.544 49.0687C165.917 49.0687 166.183 48.97 166.342 48.7727C166.504 48.5754 166.587 48.3481 166.59 48.0909ZM174.821 59V48.1754H178.88C179.712 48.1754 180.409 48.3305 180.973 48.6406C181.54 48.9506 181.968 49.377 182.257 49.9196C182.55 50.4588 182.696 51.0719 182.696 51.759C182.696 52.4531 182.55 53.0698 182.257 53.6089C181.965 54.148 181.533 54.5726 180.962 54.8827C180.392 55.1892 179.689 55.3425 178.854 55.3425H176.163V53.7304H178.589C179.076 53.7304 179.474 53.6459 179.784 53.4767C180.094 53.3076 180.323 53.075 180.471 52.7791C180.622 52.4831 180.698 52.143 180.698 51.759C180.698 51.3749 180.622 51.0366 180.471 50.7442C180.323 50.4517 180.092 50.2244 179.779 50.0623C179.468 49.8967 179.069 49.8139 178.579 49.8139H176.782V59H174.821ZM187.793 59.1586C186.979 59.1586 186.276 58.9894 185.684 58.6512C185.095 58.3094 184.642 57.8266 184.325 57.203C184.008 56.5758 183.85 55.8376 183.85 54.9884C183.85 54.1533 184.008 53.4204 184.325 52.7896C184.646 52.1554 185.093 51.6621 185.668 51.3097C186.242 50.9538 186.917 50.7759 187.692 50.7759C188.192 50.7759 188.665 50.8569 189.109 51.019C189.556 51.1776 189.951 51.4242 190.293 51.759C190.638 52.0937 190.909 52.5201 191.107 53.038C191.304 53.5525 191.402 54.1656 191.402 54.8774V55.464H184.748V54.1744H189.568C189.565 53.8079 189.486 53.482 189.331 53.1966C189.176 52.9077 188.959 52.6804 188.681 52.5148C188.406 52.3492 188.085 52.2664 187.719 52.2664C187.327 52.2664 186.984 52.3615 186.688 52.5518C186.392 52.7385 186.161 52.9852 185.996 53.2917C185.833 53.5948 185.751 53.9278 185.747 54.2907V55.4165C185.747 55.8886 185.833 56.2939 186.006 56.6321C186.179 56.9669 186.42 57.2241 186.73 57.4038C187.04 57.58 187.403 57.6681 187.819 57.6681C188.097 57.6681 188.349 57.6293 188.575 57.5518C188.8 57.4707 188.996 57.3527 189.161 57.1977C189.327 57.0426 189.452 56.8506 189.537 56.6216L191.323 56.8224C191.21 57.2946 190.996 57.7068 190.678 58.0592C190.365 58.408 189.963 58.6794 189.473 58.8731C188.984 59.0634 188.423 59.1586 187.793 59.1586ZM196.562 59.1586C195.752 59.1586 195.056 58.9806 194.475 58.6247C193.897 58.2688 193.451 57.7773 193.137 57.1501C192.827 56.5194 192.672 55.7935 192.672 54.9725C192.672 54.148 192.831 53.4204 193.148 52.7896C193.465 52.1554 193.913 51.6621 194.491 51.3097C195.072 50.9538 195.759 50.7759 196.552 50.7759C197.211 50.7759 197.794 50.8974 198.301 51.1406C198.812 51.3802 199.219 51.7202 199.522 52.1607C199.825 52.5976 199.998 53.1085 200.04 53.6934H198.211C198.137 53.3023 197.961 52.9764 197.683 52.7156C197.408 52.4514 197.04 52.3192 196.578 52.3192C196.187 52.3192 195.844 52.4249 195.548 52.6363C195.252 52.8442 195.021 53.1437 194.855 53.5349C194.693 53.926 194.612 54.3946 194.612 54.9408C194.612 55.494 194.693 55.9697 194.855 56.3679C195.017 56.7625 195.245 57.0673 195.537 57.2822C195.833 57.4937 196.18 57.5994 196.578 57.5994C196.86 57.5994 197.112 57.5465 197.334 57.4408C197.56 57.3316 197.748 57.1748 197.9 56.9704C198.051 56.766 198.155 56.5176 198.211 56.2252H200.04C199.994 56.7995 199.825 57.3087 199.533 57.7526C199.24 58.1931 198.842 58.5384 198.338 58.7886C197.834 59.0352 197.242 59.1586 196.562 59.1586ZM201.611 59V50.8816H208.466V59H206.622V52.4514H203.44V59H201.611ZM211.333 62.0444C211.072 62.0444 210.83 62.0233 210.608 61.981C210.39 61.9422 210.216 61.8964 210.085 61.8436L210.529 60.3531C210.807 60.4341 211.056 60.4729 211.274 60.4693C211.493 60.4658 211.685 60.3971 211.85 60.2632C212.02 60.1328 212.162 59.9144 212.279 59.6078L212.442 59.1691L209.498 50.8816H211.528L213.399 57.0127H213.484L215.36 50.8816H217.395L214.144 59.9831C213.993 60.413 213.792 60.7812 213.542 61.0877C213.292 61.3978 212.985 61.6339 212.622 61.796C212.263 61.9616 211.833 62.0444 211.333 62.0444ZM225.225 47.8795L225.891 49.1163C225.655 49.3206 225.391 49.4686 225.098 49.5602C224.806 49.6518 224.462 49.7117 224.068 49.7399C223.677 49.7646 223.212 49.7822 222.672 49.7928C222.066 49.8069 221.571 49.9214 221.187 50.1363C220.803 50.3513 220.509 50.6772 220.305 51.1141C220.1 51.5475 219.966 52.1008 219.903 52.7738H219.993C220.246 52.2769 220.602 51.8981 221.06 51.6374C221.518 51.3767 222.056 51.2463 222.672 51.2463C223.345 51.2463 223.939 51.3978 224.454 51.7008C224.972 52.0003 225.375 52.4355 225.664 53.0063C225.956 53.5772 226.103 54.2678 226.103 55.0782C226.103 55.9133 225.946 56.6374 225.632 57.2505C225.319 57.8601 224.873 58.3305 224.295 58.6617C223.721 58.993 223.039 59.1586 222.25 59.1586C221.464 59.1586 220.78 58.9877 220.199 58.6459C219.621 58.3006 219.173 57.7914 218.856 57.1184C218.543 56.4419 218.386 55.6085 218.386 54.6184V53.889C218.386 51.9792 218.742 50.5539 219.454 49.6131C220.165 48.6723 221.221 48.1931 222.62 48.1754C223.035 48.1684 223.407 48.1666 223.735 48.1702C224.066 48.1737 224.355 48.1578 224.602 48.1226C224.848 48.0874 225.056 48.0063 225.225 47.8795ZM222.26 57.6258C222.651 57.6258 222.99 57.5254 223.275 57.3245C223.56 57.1201 223.779 56.8312 223.93 56.4577C224.085 56.0842 224.163 55.642 224.163 55.1311C224.163 54.6272 224.085 54.1991 223.93 53.8467C223.775 53.4908 223.555 53.2195 223.27 53.0328C222.984 52.846 222.644 52.7526 222.25 52.7526C221.954 52.7526 221.688 52.8055 221.451 52.9112C221.215 53.0169 221.015 53.1719 220.849 53.3763C220.683 53.5807 220.556 53.8291 220.468 54.1216C220.38 54.414 220.333 54.7505 220.326 55.1311C220.326 55.8957 220.498 56.5035 220.844 56.9545C221.189 57.402 221.661 57.6258 222.26 57.6258ZM227.17 59L227.16 57.4249H227.44C227.651 57.4249 227.829 57.3774 227.974 57.2822C228.118 57.1871 228.238 57.0285 228.333 56.8065C228.428 56.581 228.502 56.278 228.555 55.8975C228.608 55.5169 228.645 55.043 228.666 54.4757L228.809 50.8816H234.728V59H232.879V52.4514H230.548L230.421 55.0676C230.389 55.7442 230.313 56.3309 230.194 56.8277C230.077 57.321 229.912 57.728 229.697 58.0486C229.485 58.3693 229.219 58.6089 228.899 58.7674C228.578 58.9225 228.199 59 227.762 59H227.17ZM238.5 56.4101L241.75 50.8816H243.716V59H241.866V53.4662L238.626 59H236.655V50.8816H238.5V56.4101ZM245.681 59V50.8816H247.595V54.1585H248.292L250.734 50.8816H253.038L250.031 54.8668L253.07 59H250.755L248.53 55.9397H247.595V59H245.681ZM256 56.4101L259.25 50.8816H261.216V59H259.366V53.4662L256.127 59H254.155V50.8816H256V56.4101Z" fill="black"/>
<defs>
<linearGradient id="paint0_linear_4_21" x1="39.7896" y1="32.9606" x2="68.602" y2="32.9606" gradientUnits="userSpaceOnUse">
<stop stop-color="#02181F"/>
<stop offset="1" stop-color="#02181F" stop-opacity="0"/>
</linearGradient>
<clipPath id="clip0_4_21">
<rect width="79.4704" height="66.1087" fill="white"/>
</clipPath>
</defs>
</svg>
