<svg xmlns="http://www.w3.org/2000/svg" viewBox="0 0 406.49 461.5"><defs><style>.a{fill:#e0e0e0;}.b{fill:#62b26b;}.c{fill:#efb041;}.d{fill:#ce953a;}.e{fill:#dbb895;}.f{fill:#519e57;}.g{fill:#4b7de0;}.h{fill:#bfbfbf;}.i{fill:none;stroke:#333;}.i,.n,.o{stroke-miterlimit:10;}.i,.o{stroke-width:4px;}.j{fill:#333;}.k{fill:#e54848;}.l{fill:#ce4545;}.m{fill:#bf3737;}.n{fill:#dd5050;stroke:#443131;stroke-width:7px;}.o{fill:#eee;stroke:#515151;}</style></defs><polygon class="a" points="51.55 74.47 77.67 42.48 90.83 53.43 64.71 85.42 51.55 74.47"/><path class="b" d="M36.68,48,49.13,32.77A10.67,10.67,0,0,1,64.26,31.3L77,41.93l-26.13,32L38.13,63.29A10.92,10.92,0,0,1,36.68,48Z"/><polygon class="c" points="78.1 69.7 90.93 53.99 250.15 186.56 237.31 202.28 78.1 69.7"/><polygon class="d" points="65.17 84.86 78 69.15 237.21 201.72 224.38 217.44 65.17 84.86"/><polygon class="e" points="259.34 231.47 269.43 219.12 250.7 186.56 224.58 218.55 259.34 231.47"/><path class="f" d="M64,57.92l-13.06,16L38.13,63.29c-4.58-3.81-5.71-10.07-2.51-14l7.28-8.92"/><polygon class="g" points="277.28 237.92 279.58 235.11 269.63 220.23 260.46 231.45 277.28 237.92"/><polygon class="h" points="50.43 74.48 63.73 58.2 76.88 69.16 63.59 85.44 50.43 74.48"/><path class="i" d="M35.39,49.59c-3.07,3.75-2,9.77,2.41,13.43L224.16,218.2a2.86,2.86,0,0,0,.91.52l55.1,19.72c.55.15.75,0,.42-.51L251,187a3.25,3.25,0,0,0-.68-.8L63.93,31c-4.4-3.66-10.45-3.59-13.52.16Z"/><line class="i" x1="224.16" y1="218.2" x2="250.29" y2="186.21"/><line class="i" x1="269.29" y1="218.51" x2="259.15" y2="230.92"/><line class="i" x1="77.02" y1="41.93" x2="50.89" y2="73.92"/><line class="i" x1="91.01" y1="53.57" x2="64.88" y2="85.56"/><path class="j" d="M129.42,112.43h0a1.42,1.42,0,0,1,2-.2l105.68,88a1.47,1.47,0,0,1,.19,2.05h0a1.43,1.43,0,0,1-2,.19l-105.67-88A1.47,1.47,0,0,1,129.42,112.43Z"/><path class="j" d="M78.1,69.7h0a1.43,1.43,0,0,1,2-.2l26.72,22.26a1.47,1.47,0,0,1,.2,2h0a1.43,1.43,0,0,1-2,.19L78.29,71.75A1.47,1.47,0,0,1,78.1,69.7Z"/><polygon class="a" points="241.07 273.26 213.82 308.1 200.1 296.16 227.35 261.33 241.07 273.26"/><path class="k" d="M256.59,302.06l-13,16.61a10.82,10.82,0,0,1-15.78,1.59l-13.31-11.57,27.25-34.83,13.31,11.57A12.25,12.25,0,0,1,256.59,302.06Z"/><polygon class="c" points="213.38 278.45 199.99 295.56 33.92 151.19 47.31 134.08 213.38 278.45"/><polygon class="d" points="226.87 261.94 213.48 279.05 47.41 134.68 60.8 117.57 226.87 261.94"/><polygon class="e" points="24.33 102.29 13.81 115.74 33.34 151.2 60.59 116.36 24.33 102.29"/><path class="l" d="M228.13,291.27l13.63-17.41,13.31,11.57c4.78,4.15,5.95,11,2.62,15.22l-7.6,9.71"/><polygon class="m" points="5.61 95.26 3.22 98.32 13.6 114.53 23.16 102.31 5.61 95.26"/><polygon class="h" points="242.24 273.25 228.37 290.97 214.65 279.04 228.51 261.31 242.24 273.25"/><path class="i" d="M257.93,300.35c3.2-4.09,2.07-10.64-2.52-14.63L61,116.74a3,3,0,0,0-.94-.57L2.6,94.7c-.57-.17-.78,0-.43.55L33.06,150.7a3.31,3.31,0,0,0,.71.87l194.39,169c4.59,4,10.9,3.91,14.1-.18Z"/><line class="i" x1="61.02" y1="116.74" x2="33.77" y2="151.57"/><line class="i" x1="13.95" y1="116.4" x2="24.53" y2="102.89"/><line class="i" x1="214.51" y1="308.69" x2="241.76" y2="273.86"/><line class="i" x1="199.92" y1="296.01" x2="227.17" y2="261.17"/><path class="j" d="M159.85,231.92h0a1.45,1.45,0,0,1-2.11.21L47.51,136.31a1.64,1.64,0,0,1-.2-2.23h0a1.45,1.45,0,0,1,2.11-.22l110.23,95.82A1.65,1.65,0,0,1,159.85,231.92Z"/><path class="j" d="M213.38,278.45h0a1.46,1.46,0,0,1-2.12.21l-27.87-24.23a1.65,1.65,0,0,1-.21-2.23h0a1.46,1.46,0,0,1,2.12-.22l27.88,24.24A1.64,1.64,0,0,1,213.38,278.45Z"/><path class="n" d="M209.75,3.5A128.5,128.5,0,0,1,338.25,132c-3.5,159-128.5,240-128.5,240h-.5s-125-81-128.5-240A128.5,128.5,0,0,1,209.25,3.5Z"/><circle class="o" cx="209.25" cy="131" r="52.5"/><rect class="a" x="333.64" y="106.92" width="51.87" height="21.54" transform="translate(555.73 441.22) rotate(-139.35)"/><path class="k" d="M352.59,78.39h51.87a0,0,0,0,1,0,0v21.87a12.6,12.6,0,0,1-12.6,12.6H365.19a12.6,12.6,0,0,1-12.6-12.6V78.39A0,0,0,0,1,352.59,78.39Z" transform="translate(603.43 414.75) rotate(-139.35)"/><rect class="c" x="264.23" y="103.13" width="25.48" height="260.69" transform="translate(335.03 591.03) rotate(-139.35)"/><rect class="d" x="245.59" y="86.41" width="25.48" height="260.69" transform="translate(313.14 549.5) rotate(-139.35)"/><polygon class="e" points="145.34 351.17 160.53 364.21 201.72 341.37 162.37 307.58 145.34 351.17"/><path class="l" d="M367.29,108.7,347.62,91.81,361.23,76c4.88-5.69,12.74-7,17.54-2.83l11,9.43"/><polygon class="g" points="136.81 373.67 140.27 376.63 159.13 364.43 145.32 352.58 136.81 373.67"/><rect class="h" x="336.72" y="97.21" width="26.39" height="21.54" transform="translate(545.08 417.85) rotate(-139.35)"/><path class="i" d="M378.43,72.83c-4.62-4-12.16-2.75-16.86,2.72L162.81,307.06a4,4,0,0,0-.68,1.14l-26,69.1c-.2.68-.06.94.62.54l64.44-36.15a4,4,0,0,0,1-.83L400.93,109.34c4.69-5.47,4.75-13.11.14-17.08Z"/><line class="i" x1="162.81" y1="307.06" x2="202.17" y2="340.86"/><line class="i" x1="161.29" y1="364.05" x2="146.02" y2="350.94"/><line class="i" x1="386.97" y1="125.6" x2="347.62" y2="91.81"/><line class="i" x1="372.05" y1="142.97" x2="332.7" y2="109.18"/><rect class="j" x="238.12" y="168.71" width="3.64" height="176.66" rx="1.69" transform="matrix(-0.76, -0.65, 0.65, -0.76, 254.54, 608.37)"/><rect class="j" x="334.95" y="120.56" width="3.64" height="47.4" rx="1.69" transform="translate(498.32 473.08) rotate(-139.35)"/></svg>